# Blender v2.78 (sub 0) OBJ File: 'MAP1.blend'
# www.blender.org
mtllib MAP1.mtl
o Cube.006_Cube.007
v 4.339402 0.669953 5.310130
v -4.451727 10.879642 4.398993
v 4.339402 0.669953 7.310130
v -4.451727 10.879642 6.398993
v 2.339402 0.669953 5.310130
v -6.451726 10.879642 4.398993
v 2.339402 0.669953 7.310130
v -6.451726 10.879642 6.398993
vn 0.7578 0.6525 0.0000
vn 0.0000 0.0889 0.9960
vn -0.7578 -0.6525 0.0000
vn 0.0000 -0.0889 -0.9960
vn 0.0000 -1.0000 0.0000
vn 0.0000 1.0000 0.0000
usemtl None
s off
f 1//1 4//1 3//1
f 4//2 7//2 3//2
f 8//3 5//3 7//3
f 5//4 2//4 1//4
f 7//5 1//5 3//5
f 4//6 6//6 8//6
f 1//1 2//1 4//1
f 4//2 8//2 7//2
f 8//3 6//3 5//3
f 5//4 6//4 2//4
f 7//5 5//5 1//5
f 4//6 2//6 6//6
o Cube.005_Cube.006
v -8.147693 6.806795 2.694816
v -4.453292 10.894811 4.467577
v -8.147693 6.806795 4.694817
v -4.453292 10.894811 6.467577
v -10.147693 6.806795 2.694816
v -6.453292 10.894811 4.467577
v -10.147693 6.806795 4.694817
v -6.453292 10.894811 6.467577
vn 0.7419 -0.6705 0.0000
vn 0.0000 -0.3979 0.9175
vn -0.7419 0.6705 0.0000
vn 0.0000 0.3979 -0.9175
vn 0.0000 -1.0000 0.0000
vn 0.0000 1.0000 0.0000
usemtl None
s off
f 10//7 11//7 9//7
f 11//8 16//8 15//8
f 15//9 14//9 13//9
f 14//10 9//10 13//10
f 15//11 9//11 11//11
f 12//12 14//12 16//12
f 10//7 12//7 11//7
f 11//8 12//8 16//8
f 15//9 16//9 14//9
f 14//10 10//10 9//10
f 15//11 13//11 9//11
f 12//12 10//12 14//12
o Cube.004_Cube.005
v -8.485969 4.905521 -5.244353
v -8.485969 6.905521 -5.244353
v -8.485969 4.905521 4.951172
v -8.485969 6.905521 4.951172
v -10.485969 4.905521 -5.244353
v -10.485969 6.905521 -5.244353
v -10.485969 4.905521 4.951172
v -10.485969 6.905521 4.951172
vn 1.0000 0.0000 0.0000
vn 0.0000 0.0000 1.0000
vn -1.0000 0.0000 0.0000
vn 0.0000 0.0000 -1.0000
vn 0.0000 -1.0000 0.0000
vn 0.0000 1.0000 0.0000
usemtl None
s off
f 18//13 19//13 17//13
f 20//14 23//14 19//14
f 24//15 21//15 23//15
f 22//16 17//16 21//16
f 23//17 17//17 19//17
f 20//18 22//18 24//18
f 18//13 20//13 19//13
f 20//14 24//14 23//14
f 24//15 22//15 21//15
f 22//16 18//16 17//16
f 23//17 21//17 17//17
f 20//18 18//18 22//18
o Cube.003_Cube.001
v -8.524884 -0.330015 -1.447378
v -8.524884 6.915886 -7.264760
v -8.524884 -0.330015 0.552622
v -8.524884 6.915886 -5.264760
v -10.524884 -0.330015 -1.447378
v -10.524884 6.915886 -7.264760
v -10.524884 -0.330015 0.552622
v -10.524884 6.915886 -5.264760
vn 1.0000 -0.0000 0.0000
vn 0.0000 0.6260 0.7798
vn -1.0000 0.0000 0.0000
vn 0.0000 -0.6260 -0.7798
vn 0.0000 -1.0000 0.0000
vn 0.0000 1.0000 0.0000
usemtl None
s off
f 25//19 28//19 27//19
f 28//20 31//20 27//20
f 32//21 29//21 31//21
f 30//22 25//22 29//22
f 31//23 25//23 27//23
f 28//24 30//24 32//24
f 25//19 26//19 28//19
f 28//20 32//20 31//20
f 32//21 30//21 29//21
f 30//22 26//22 25//22
f 31//23 29//23 25//23
f 28//24 26//24 30//24
o Cube.002_Cube.003
v -0.595129 -0.129334 -12.146374
v -0.595129 8.762551 -12.146374
v -0.595129 -0.129334 -10.146374
v -0.595129 8.762551 -10.146374
v -2.595129 -0.129334 -12.146374
v -2.595129 8.762551 -12.146374
v -2.595129 -0.129334 -10.146374
v -2.595129 8.762551 -10.146374
vn 1.0000 0.0000 0.0000
vn 0.0000 0.0000 1.0000
vn -1.0000 0.0000 0.0000
vn 0.0000 0.0000 -1.0000
vn 0.0000 -1.0000 0.0000
vn 0.0000 1.0000 0.0000
usemtl None
s off
f 34//25 35//25 33//25
f 36//26 39//26 35//26
f 40//27 37//27 39//27
f 38//28 33//28 37//28
f 39//29 33//29 35//29
f 36//30 38//30 40//30
f 34//25 36//25 35//25
f 36//26 40//26 39//26
f 40//27 38//27 37//27
f 38//28 34//28 33//28
f 39//29 37//29 33//29
f 36//30 34//30 38//30
o Cube.001_Cube.002
v -2.667414 -0.103885 0.372654
v 1.790285 6.710165 -2.611828
v -2.667414 -0.103885 2.372654
v 1.790285 6.710165 -0.611828
v -4.667414 -0.103885 0.372654
v -0.209715 6.710165 -2.611828
v -4.667414 -0.103885 2.372654
v -0.209715 6.710165 -0.611828
vn 0.8368 -0.5475 0.0000
vn 0.0000 0.4012 0.9160
vn -0.8368 0.5475 0.0000
vn 0.0000 -0.4012 -0.9160
vn 0.0000 -1.0000 0.0000
vn 0.0000 1.0000 0.0000
usemtl None
s off
f 41//31 44//31 43//31
f 43//32 48//32 47//32
f 48//33 45//33 47//33
f 46//34 41//34 45//34
f 47//35 41//35 43//35
f 44//36 46//36 48//36
f 41//31 42//31 44//31
f 43//32 44//32 48//32
f 48//33 46//33 45//33
f 46//34 42//34 41//34
f 47//35 45//35 41//35
f 44//36 42//36 46//36
o Cube
v 5.647208 -0.048152 -6.843806
v 5.647208 1.951848 -6.843806
v 5.647208 -0.048152 -4.843806
v 5.868181 6.461109 -1.832228
v 3.647208 -0.048152 -6.843806
v 3.647208 1.951848 -6.843806
v 3.647208 -0.048152 -4.843806
v 3.868181 6.461109 -1.832228
vn 1.0000 0.0000 0.0000
vn 0.0000 -0.4199 0.9076
vn -1.0000 0.0000 0.0000
vn 0.0000 0.0000 -1.0000
vn 0.0000 -1.0000 0.0000
vn 0.0000 0.7434 -0.6689
vn 0.9995 -0.0232 -0.0232
vn -0.9995 0.0232 0.0232
usemtl None
s off
f 50//37 51//37 49//37
f 51//38 56//38 55//38
f 55//39 54//39 53//39
f 54//40 49//40 53//40
f 55//41 49//41 51//41
f 56//42 50//42 54//42
f 50//43 52//43 51//43
f 51//38 52//38 56//38
f 55//44 56//44 54//44
f 54//40 50//40 49//40
f 55//41 53//41 49//41
f 56//42 52//42 50//42
o Plane_Plane.002
v 50.000000 0.000000 -50.000000
v -50.000000 0.000000 -50.000000
v 50.000000 0.000000 50.000000
v -50.000000 0.000000 50.000000
vn 0.0000 1.0000 0.0000
usemtl None
s off
f 58//45 59//45 57//45
f 58//45 60//45 59//45
