# Blender v2.78 (sub 0) OBJ File: 'MAP2.blend'
# www.blender.org
mtllib MAP2.mtl
o TOWER_Cube
v 5.658691 -0.163223 21.586988
v 5.658691 8.752210 21.586988
v 5.658691 -0.163223 19.586988
v 5.658691 8.752210 19.586988
v 7.658691 -0.163223 21.586988
v 7.658691 8.752210 21.586988
v 7.658691 -0.163223 19.586988
v 7.658691 8.752210 19.586988
vn -1.0000 0.0000 0.0000
vn 0.0000 0.0000 -1.0000
vn 1.0000 0.0000 0.0000
vn 0.0000 0.0000 1.0000
vn 0.0000 -1.0000 0.0000
vn 0.0000 1.0000 0.0000
usemtl None
s off
f 2//1 3//1 1//1
f 4//2 7//2 3//2
f 8//3 5//3 7//3
f 6//4 1//4 5//4
f 7//5 1//5 3//5
f 4//6 6//6 8//6
f 2//1 4//1 3//1
f 4//2 8//2 7//2
f 8//3 6//3 5//3
f 6//4 2//4 1//4
f 7//5 5//5 1//5
f 4//6 2//6 6//6
o GROUND_Plane
v -50.022663 0.005448 51.011066
v 49.977337 0.005448 51.011066
v -50.022663 0.005448 -48.988934
v 49.977337 0.005448 -48.988934
v -50.022663 0.005448 -0.077832
v 49.977337 0.005448 -0.077832
v -50.022663 0.005448 24.168434
v 49.977337 0.005448 24.168432
v -50.022663 0.005448 37.589748
v 49.977337 0.005448 37.589748
v 49.977337 0.005448 12.045300
v -50.022663 0.005448 12.045300
v 49.977337 0.005448 -24.136143
v -50.022663 0.005448 -24.136143
v -50.022663 0.005448 -12.106988
v 49.977337 0.005448 -12.106989
v 49.977337 0.005448 -36.562542
v -50.022663 0.005448 -36.562542
v -0.022662 0.005448 51.011066
v -0.022662 0.005448 -48.988934
v -0.022662 0.005448 -0.077832
v -0.022662 0.005448 24.168434
v -0.022662 0.005448 37.589748
v -0.022662 0.005448 12.045300
v -0.022662 0.005448 -24.136143
v -0.022662 -1.607123 -12.106988
v -0.022662 3.607985 -36.562542
v 25.405174 0.005448 51.011066
v 25.405174 0.005448 -48.988934
v 25.405174 0.005448 -0.077832
v 25.587326 -2.615949 22.126928
v 25.405174 0.005448 37.589748
v 25.405174 -5.684806 12.045300
v 25.405174 0.005448 -24.136143
v 25.405174 5.766535 -12.106988
v 25.405174 -4.473807 -36.562542
v -22.999743 0.005448 -48.988934
v -22.999743 8.983512 -0.077832
v -22.999743 0.005448 24.168434
v -22.999743 0.005448 37.589748
v -22.999743 0.005448 12.045300
v -22.999743 0.005448 -24.136143
v -22.999743 3.859143 -12.106988
v -22.999743 5.434947 -36.562542
v -22.999743 0.005448 51.011066
v 12.305811 0.005448 -48.988934
v 12.305811 0.005448 -0.077832
v 12.305811 0.005448 24.168432
v 12.305811 0.005448 37.589748
v 12.305811 0.005448 12.045300
v 12.305811 3.407254 -24.136143
v 12.305811 0.005448 -12.106988
v 12.305811 0.005448 -36.562542
v 12.305811 0.005448 51.011066
v 37.691254 0.005448 51.011066
v 37.691254 0.005448 -48.988934
v 37.691254 -4.779449 -0.077832
v 37.691254 -3.458300 24.168432
v 38.070217 -1.318907 36.816963
v 37.691254 -8.378316 12.045300
v 37.691254 -7.125721 -24.136143
v 37.691254 -6.453802 -12.106988
v 37.691254 -2.259977 -36.562542
v -11.372189 0.005448 51.011066
v -11.372189 0.005448 -48.988934
v -11.372189 6.343976 -0.077832
v -11.372189 0.005448 24.168434
v -11.372189 0.005448 37.589748
v -11.372189 0.005448 12.045300
v -11.372189 -5.142504 -24.136143
v -11.372189 -1.642678 -12.106988
v -11.372189 0.005448 -36.562542
v -36.511204 0.005448 -48.988934
v -36.511204 0.005448 -0.077832
v -36.511204 0.005448 24.168434
v -36.511204 0.005448 37.589748
v -36.511204 0.005448 12.045300
v -36.511204 0.005448 -24.136143
v -36.511204 0.005448 -12.106988
v -36.511204 0.005448 -36.562542
v -36.511204 0.005448 51.011066
vn -0.1785 0.9680 0.1765
vn -0.5474 0.8022 0.2382
vn -0.2682 0.9512 -0.1528
vn -0.1039 0.9900 -0.0951
vn -0.5344 0.7832 -0.3178
vn -0.5014 0.8639 -0.0483
vn -0.4619 0.8785 -0.1223
vn -0.4755 0.8192 0.3208
vn -0.3865 0.8521 0.3530
vn 0.4218 0.7553 -0.5015
vn -0.3993 0.8803 -0.2561
vn 0.0000 1.0000 0.0000
vn 0.4436 0.7942 0.4153
vn 0.2430 0.9356 -0.2561
vn 0.2424 0.9336 0.2640
vn 0.1936 0.9811 0.0000
vn -0.2743 0.9617 0.0000
vn 0.2702 0.9247 -0.2681
vn -0.1286 0.9829 0.1318
vn -0.1286 0.9829 -0.1318
vn 0.2702 0.9247 0.2681
vn -0.1671 0.9275 -0.3343
vn 0.6678 0.6714 0.3215
vn 0.6678 0.6714 -0.3215
vn 0.2050 0.9353 -0.2884
vn 0.0962 0.9815 -0.1653
vn 0.3325 0.8537 0.4007
vn -0.1671 0.9275 0.3343
vn 0.3934 0.8425 -0.3681
vn 0.1795 0.7906 0.5855
vn 0.4108 0.8682 -0.2782
vn 0.2044 0.9006 -0.3836
vn 0.3934 0.8425 0.3681
vn -0.3629 0.9318 0.0000
vn -0.1105 0.9939 0.0000
vn -0.2713 0.9625 0.0000
vn -0.4653 0.8851 0.0000
vn -0.1813 0.9834 0.0000
vn -0.2916 0.9187 0.2663
vn -0.0031 0.9911 -0.1329
vn -0.0031 0.9911 0.1329
vn -0.2916 0.9187 -0.2663
vn 0.3062 0.8956 -0.3228
vn -0.3687 0.8384 0.4015
vn -0.3687 0.8384 -0.4015
vn 0.3830 0.8818 -0.2753
vn 0.1669 0.9724 -0.1629
vn 0.3660 0.8424 0.3954
vn 0.3062 0.8956 0.3228
vn -0.3455 0.8599 -0.3757
vn -0.4710 0.7089 0.5250
vn -0.2621 0.9190 -0.2944
vn -0.5216 0.7849 -0.3344
vn -0.3455 0.8599 0.3757
vn -0.2566 0.9300 0.2630
vn -0.2572 0.9321 -0.2552
vn 0.4755 0.8192 0.3208
vn 0.3599 0.9241 -0.1286
vn 0.5014 0.8639 -0.0483
vn 0.1269 0.9191 -0.3730
vn 0.0982 0.9911 -0.0899
vn 0.0923 0.9813 -0.1687
vn 0.2057 0.9382 0.2785
vn 0.0000 0.9838 0.1794
vn 0.0000 0.8862 0.4633
vn 0.3912 0.8837 -0.2571
vn 0.3667 0.7751 -0.5146
vn 0.3786 0.8551 0.3542
usemtl None
s off
f 25//7 64//7 71//7
f 19//8 65//8 68//8
f 67//9 16//9 66//9
f 63//10 18//10 67//10
f 66//11 19//11 68//11
f 70//12 21//12 69//12
f 65//13 24//13 70//13
f 21//14 71//14 69//14
f 33//15 80//15 78//15
f 29//16 79//16 74//16
f 79//17 33//17 78//17
f 30//18 77//18 75//18
f 27//18 76//18 72//18
f 31//18 75//18 76//18
f 77//19 29//19 74//19
f 80//18 28//18 73//18
f 42//20 61//20 59//20
f 38//18 60//18 55//18
f 60//21 42//21 59//21
f 39//22 58//22 56//22
f 36//18 57//18 62//18
f 40//18 56//18 57//18
f 58//18 38//18 55//18
f 61//18 37//18 54//18
f 88//18 45//18 81//18
f 49//18 82//18 85//18
f 48//18 83//18 84//18
f 53//18 84//18 89//18
f 47//18 85//18 83//18
f 87//18 50//18 86//18
f 82//23 51//23 87//23
f 50//18 88//18 86//18
f 61//24 28//24 35//24
f 58//18 29//18 32//18
f 57//18 30//18 31//18
f 62//18 31//18 27//18
f 56//18 32//18 30//18
f 60//25 33//25 34//25
f 29//26 60//26 34//26
f 33//27 61//27 35//27
f 42//28 71//28 44//28
f 38//29 70//29 43//29
f 70//30 42//30 43//30
f 39//31 68//31 41//31
f 63//18 40//18 36//18
f 40//32 66//32 39//32
f 41//33 65//33 38//33
f 71//34 37//34 44//34
f 80//35 45//35 52//35
f 49//36 74//36 46//36
f 76//18 47//18 48//18
f 72//18 48//18 53//18
f 75//18 49//18 47//18
f 79//37 50//37 51//37
f 74//38 51//38 46//38
f 50//39 80//39 52//39
f 86//18 26//18 22//18
f 82//18 23//18 13//18
f 87//18 22//18 23//18
f 83//18 20//18 15//18
f 89//18 17//18 9//18
f 84//18 15//18 17//18
f 85//18 13//18 20//18
f 88//18 11//18 26//18
f 25//18 12//18 64//18
f 19//40 14//40 65//40
f 67//41 18//41 16//41
f 63//18 10//18 18//18
f 66//42 16//42 19//42
f 70//43 24//43 21//43
f 65//40 14//40 24//40
f 21//44 25//44 71//44
f 33//45 35//45 80//45
f 29//46 34//46 79//46
f 79//47 34//47 33//47
f 30//18 32//18 77//18
f 27//18 31//18 76//18
f 31//18 30//18 75//18
f 77//18 32//18 29//18
f 80//48 35//48 28//48
f 42//49 44//49 61//49
f 38//50 43//50 60//50
f 60//51 43//51 42//51
f 39//52 41//52 58//52
f 36//18 40//18 57//18
f 40//53 39//53 56//53
f 58//54 41//54 38//54
f 61//55 44//55 37//55
f 88//56 52//56 45//56
f 49//57 46//57 82//57
f 48//18 47//18 83//18
f 53//18 48//18 84//18
f 47//18 49//18 85//18
f 87//58 51//58 50//58
f 82//59 46//59 51//59
f 50//60 52//60 88//60
f 61//18 54//18 28//18
f 58//18 55//18 29//18
f 57//18 56//18 30//18
f 62//18 57//18 31//18
f 56//18 58//18 32//18
f 60//61 59//61 33//61
f 29//18 55//18 60//18
f 33//62 59//62 61//62
f 42//63 69//63 71//63
f 38//64 65//64 70//64
f 70//65 69//65 42//65
f 39//66 66//66 68//66
f 63//67 67//67 40//67
f 40//68 67//68 66//68
f 41//69 68//69 65//69
f 71//70 64//70 37//70
f 80//18 73//18 45//18
f 49//71 77//71 74//71
f 76//18 75//18 47//18
f 72//18 76//18 48//18
f 75//18 77//18 49//18
f 79//72 78//72 50//72
f 74//73 79//73 51//73
f 50//74 78//74 80//74
f 86//18 88//18 26//18
f 82//18 87//18 23//18
f 87//18 86//18 22//18
f 83//18 85//18 20//18
f 89//18 84//18 17//18
f 84//18 83//18 15//18
f 85//18 82//18 13//18
f 88//18 81//18 11//18
o HITBOX_TOWER_MAIN_Cube.001
v 5.658691 -0.163223 21.586988
v 5.658691 8.752210 21.586988
v 5.658691 -0.163223 19.586988
v 5.658691 8.752210 19.586988
v 7.658691 -0.163223 21.586988
v 7.658691 8.752210 21.586988
v 7.658691 -0.163223 19.586988
v 7.658691 8.752210 19.586988
vn -1.0000 0.0000 0.0000
vn 0.0000 0.0000 -1.0000
vn 1.0000 0.0000 0.0000
vn 0.0000 0.0000 1.0000
vn 0.0000 -1.0000 0.0000
vn 0.0000 1.0000 0.0000
usemtl None
s off
f 91//75 92//75 90//75
f 93//76 96//76 92//76
f 97//77 94//77 96//77
f 95//78 90//78 94//78
f 96//79 90//79 92//79
f 93//80 95//80 97//80
f 91//75 93//75 92//75
f 93//76 97//76 96//76
f 97//77 95//77 94//77
f 95//78 91//78 90//78
f 96//79 94//79 90//79
f 93//80 91//80 95//80
