# Blender v2.79 (sub 0) OBJ File: 'model5_3.blend'
# www.blender.org
mtllib model5_3.mtl
o HITBOX_OBJECT.001_Cube.003
v 4.817559 6.610743 -3.476649
v 4.817559 8.610743 -3.476649
v 3.363409 6.610743 -4.849765
v 3.363409 8.610743 -4.849765
v 6.190675 6.610743 -4.930799
v 6.190675 8.610743 -4.930799
v 4.736525 6.610743 -6.303915
v 4.736525 8.610743 -6.303915
vn -0.6866 0.0000 0.7271
vn -0.7271 0.0000 -0.6866
vn 0.6866 0.0000 -0.7271
vn 0.7271 0.0000 0.6866
vn 0.0000 -1.0000 0.0000
vn 0.0000 1.0000 0.0000
usemtl None
s off
f 2//1 3//1 1//1
f 4//2 7//2 3//2
f 8//3 5//3 7//3
f 6//4 1//4 5//4
f 7//5 1//5 3//5
f 8//6 2//6 6//6
f 2//1 4//1 3//1
f 4//2 8//2 7//2
f 8//3 6//3 5//3
f 6//4 2//4 1//4
f 7//5 5//5 1//5
f 8//6 4//6 2//6
o OBJECT_Cube
v 0.019368 -1.000000 1.414081
v -1.414081 -1.000000 0.019368
v -0.019368 -1.000000 -1.414081
v 1.414081 -1.000000 -0.019368
v 4.821830 8.567106 -3.521763
v 3.388382 8.567106 -4.916477
v 4.783095 8.567106 -6.349925
v 6.216544 8.567106 -4.955212
vn 0.0000 -1.0000 0.0000
vn 0.0000 1.0000 0.0000
vn -0.5660 0.5842 0.5817
vn -0.7167 -0.0000 -0.6974
vn 0.5660 -0.5842 -0.5817
vn 0.7167 0.0000 0.6974
usemtl Material
s off
f 10//7 12//7 9//7
f 16//8 14//8 13//8
f 13//9 10//9 9//9
f 14//10 11//10 10//10
f 15//11 12//11 11//11
f 13//12 12//12 16//12
f 10//7 11//7 12//7
f 16//8 15//8 14//8
f 13//9 14//9 10//9
f 14//10 15//10 11//10
f 15//11 16//11 12//11
f 13//12 9//12 12//12
o HITBOX_OBJECT_Cube.001
v 0.006870 -1.000000 1.414197
v -1.414197 -1.000000 0.006871
v -0.006870 -1.000000 -1.414197
v 1.414197 -1.000000 -0.006870
v 4.852765 8.567106 -3.479013
v 3.431698 8.567106 -4.886340
v 4.839025 8.567106 -6.307406
v 6.260092 8.567106 -4.900080
vn 0.0000 -1.0000 0.0000
vn 0.0000 1.0000 0.0000
vn -0.5711 0.5842 0.5767
vn -0.7105 -0.0000 -0.7037
vn 0.5711 -0.5842 -0.5767
vn 0.7105 0.0000 0.7037
usemtl Material.001
s off
f 17//13 19//13 20//13
f 24//14 22//14 21//14
f 21//15 18//15 17//15
f 22//16 19//16 18//16
f 23//17 20//17 19//17
f 21//18 20//18 24//18
f 17//13 18//13 19//13
f 24//14 23//14 22//14
f 21//15 22//15 18//15
f 22//16 23//16 19//16
f 23//17 24//17 20//17
f 21//18 17//18 20//18
o HITBOX_MODEL_Cube.002
v 0.015569 -1.000000 1.414128
v -1.414128 -1.000000 0.015569
v -0.015569 -1.000000 -1.414128
v 1.414128 -1.000000 -0.015569
v 4.831273 8.567106 -3.508797
v 3.401577 8.567106 -4.907357
v 4.800135 8.567106 -6.337053
v 6.229832 8.567106 -4.938494
vn 0.0000 -1.0000 0.0000
vn 0.0000 1.0000 0.0000
vn -0.5675 0.5842 0.5802
vn -0.7148 -0.0000 -0.6993
vn 0.5675 -0.5842 -0.5802
vn 0.7148 0.0000 0.6993
usemtl Material.002
s off
f 26//19 28//19 25//19
f 32//20 30//20 29//20
f 25//21 30//21 26//21
f 30//22 27//22 26//22
f 27//23 32//23 28//23
f 29//24 28//24 32//24
f 26//19 27//19 28//19
f 32//20 31//20 30//20
f 25//21 29//21 30//21
f 30//22 31//22 27//22
f 27//23 31//23 32//23
f 29//24 25//24 28//24
