# Blender v2.78 (sub 0) OBJ File: 'model4.blend'
# www.blender.org
mtllib model4.mtl
o HITBOX_MODEL_Cube.001
v -1.000011 -0.993611 3.566287
v -1.000011 3.427899 3.566287
v -1.000011 -0.993611 -0.985109
v -1.000011 3.427899 -0.985109
v 0.999989 -0.993611 3.566287
v 0.999989 3.427899 3.566287
v 0.999989 -0.993611 -0.985109
v 0.999989 3.427899 -0.985109
vn -1.0000 0.0000 0.0000
vn 0.0000 0.0000 -1.0000
vn 1.0000 0.0000 0.0000
vn 0.0000 0.0000 1.0000
vn 0.0000 -1.0000 0.0000
vn 0.0000 1.0000 0.0000
usemtl None
s off
f 2//1 3//1 1//1
f 4//2 7//2 3//2
f 8//3 5//3 7//3
f 6//4 1//4 5//4
f 7//5 1//5 3//5
f 4//6 6//6 8//6
f 2//1 4//1 3//1
f 4//2 8//2 7//2
f 8//3 6//3 5//3
f 6//4 2//4 1//4
f 7//5 5//5 1//5
f 4//6 2//6 6//6
o HITBOX_OBJECT_2_Cube.002
v -1.005532 0.537337 2.782149
v -1.005532 2.078188 2.782149
v -1.005532 0.537337 -0.119897
v -1.005532 2.078188 -0.119897
v 0.994468 0.537337 2.782149
v 0.994468 2.078188 2.782149
v 0.994468 0.537337 -0.119897
v 0.994468 2.078188 -0.119897
vn -1.0000 0.0000 0.0000
vn 0.0000 0.0000 -1.0000
vn 1.0000 0.0000 0.0000
vn 0.0000 0.0000 1.0000
vn 0.0000 -1.0000 0.0000
vn 0.0000 1.0000 0.0000
usemtl None
s off
f 10//7 11//7 9//7
f 12//8 15//8 11//8
f 16//9 13//9 15//9
f 14//10 9//10 13//10
f 15//11 9//11 11//11
f 12//12 14//12 16//12
f 10//7 12//7 11//7
f 12//8 16//8 15//8
f 16//9 14//9 13//9
f 14//10 10//10 9//10
f 15//11 13//11 9//11
f 12//12 10//12 14//12
o OBJECT_Cube
v 1.000000 -1.000000 -1.000000
v 1.000000 -1.000000 1.000000
v -1.000000 -1.000000 1.000000
v -1.000000 -1.000000 -1.000000
v 1.000000 3.422729 1.561815
v 0.999999 3.422729 3.561815
v -1.000000 3.422729 3.561814
v -1.000000 3.422729 1.561815
vn 0.0000 -1.0000 0.0000
vn 0.0000 1.0000 -0.0000
vn 1.0000 -0.0000 0.0000
vn 0.0000 -0.5012 0.8653
vn -1.0000 0.0000 -0.0000
vn 0.0000 0.5012 -0.8653
usemtl Material
s off
f 18//13 20//13 17//13
f 24//14 22//14 21//14
f 21//15 18//15 17//15
f 18//16 23//16 19//16
f 19//17 24//17 20//17
f 17//18 24//18 21//18
f 18//13 19//13 20//13
f 24//14 23//14 22//14
f 21//15 22//15 18//15
f 18//16 22//16 23//16
f 19//17 23//17 24//17
f 17//18 20//18 24//18
o HITBOX_OBJECT_1_Cube.003
v -1.005532 -0.994272 1.894944
v -1.005532 0.546579 1.894944
v -1.005532 -0.994272 -0.998552
v -1.005532 0.546579 -0.998552
v 0.994468 -0.994272 1.894944
v 0.994468 0.546579 1.894944
v 0.994468 -0.994272 -0.998552
v 0.994468 0.546579 -0.998552
vn -1.0000 0.0000 0.0000
vn 0.0000 0.0000 -1.0000
vn 1.0000 0.0000 0.0000
vn 0.0000 0.0000 1.0000
vn 0.0000 -1.0000 0.0000
vn 0.0000 1.0000 0.0000
usemtl None
s off
f 26//19 27//19 25//19
f 28//20 31//20 27//20
f 32//21 29//21 31//21
f 30//22 25//22 29//22
f 31//23 25//23 27//23
f 28//24 30//24 32//24
f 26//19 28//19 27//19
f 28//20 32//20 31//20
f 32//21 30//21 29//21
f 30//22 26//22 25//22
f 31//23 29//23 25//23
f 28//24 26//24 30//24
o HITBOX_OBJECT_3_Cube.004
v -1.005532 2.079289 3.553679
v -1.005532 3.426147 3.553679
v -1.005532 2.079289 0.788017
v -1.005532 3.426147 0.788017
v 0.994468 2.079289 3.553679
v 0.994468 3.426147 3.553679
v 0.994468 2.079289 0.788017
v 0.994468 3.426147 0.788017
vn -1.0000 0.0000 0.0000
vn 0.0000 0.0000 -1.0000
vn 1.0000 0.0000 0.0000
vn 0.0000 0.0000 1.0000
vn 0.0000 -1.0000 0.0000
vn 0.0000 1.0000 0.0000
usemtl None
s off
f 34//25 35//25 33//25
f 36//26 39//26 35//26
f 40//27 37//27 39//27
f 38//28 33//28 37//28
f 39//29 33//29 35//29
f 36//30 38//30 40//30
f 34//25 36//25 35//25
f 36//26 40//26 39//26
f 40//27 38//27 37//27
f 38//28 34//28 33//28
f 39//29 37//29 33//29
f 36//30 34//30 38//30
