# Blender v2.79 (sub 0) OBJ File: 'model5.blend'
# www.blender.org
mtllib model5.mtl
o OBJECT_Cube
v 4.480074 -4.717623 -1.000000
v 4.480074 -4.717623 1.000000
v 2.480074 -4.717623 1.000000
v 2.480075 -4.717623 -1.000000
v -2.406594 4.849483 -1.000000
v -2.406595 4.849483 1.000001
v -4.406594 4.849483 1.000000
v -4.406594 4.849483 -1.000000
vn 0.0000 -1.0000 0.0000
vn 0.0000 1.0000 0.0000
vn 0.8116 0.5842 0.0000
vn 0.0000 -0.0000 1.0000
vn -0.8116 -0.5842 -0.0000
vn 0.0000 0.0000 -1.0000
usemtl Material
s off
f 2//1 4//1 1//1
f 5//2 7//2 6//2
f 1//3 6//3 2//3
f 6//4 3//4 2//4
f 7//5 4//5 3//5
f 5//6 4//6 8//6
f 2//1 3//1 4//1
f 5//2 8//2 7//2
f 1//3 5//3 6//3
f 6//4 7//4 3//4
f 7//5 8//5 4//5
f 5//6 1//6 4//6
o HITBOX_OBJECT_Cube.001
v 4.480074 -4.717623 -1.000000
v 4.480074 -4.717623 1.000000
v 2.480074 -4.717623 1.000000
v 2.480075 -4.717623 -1.000000
v -2.406594 4.849483 -1.000000
v -2.406595 4.849483 1.000001
v -4.406594 4.849483 1.000000
v -4.406594 4.849483 -1.000000
vn 0.0000 -1.0000 0.0000
vn 0.0000 1.0000 0.0000
vn 0.8116 0.5842 0.0000
vn 0.0000 -0.0000 1.0000
vn -0.8116 -0.5842 -0.0000
vn 0.0000 0.0000 -1.0000
usemtl Material.001
s off
f 10//7 12//7 9//7
f 13//8 15//8 14//8
f 9//9 14//9 10//9
f 14//10 11//10 10//10
f 15//11 12//11 11//11
f 13//12 12//12 16//12
f 10//7 11//7 12//7
f 13//8 16//8 15//8
f 9//9 13//9 14//9
f 14//10 15//10 11//10
f 15//11 16//11 12//11
f 13//12 9//12 12//12
o HITBOX_MODEL_Cube.002
v 4.480074 -4.717623 -1.000000
v 4.480074 -4.717623 1.000000
v 2.480074 -4.717623 1.000000
v 2.480075 -4.717623 -1.000000
v -2.406594 4.849483 -1.000000
v -2.406595 4.849483 1.000001
v -4.406594 4.849483 1.000000
v -4.406594 4.849483 -1.000000
vn 0.0000 -1.0000 0.0000
vn 0.0000 1.0000 0.0000
vn 0.8116 0.5842 0.0000
vn 0.0000 -0.0000 1.0000
vn -0.8116 -0.5842 -0.0000
vn 0.0000 0.0000 -1.0000
usemtl Material.002
s off
f 18//13 20//13 17//13
f 21//14 23//14 22//14
f 17//15 22//15 18//15
f 22//16 19//16 18//16
f 23//17 20//17 19//17
f 21//18 20//18 24//18
f 18//13 19//13 20//13
f 21//14 24//14 23//14
f 17//15 21//15 22//15
f 22//16 23//16 19//16
f 23//17 24//17 20//17
f 21//18 17//18 20//18
