# Blender v2.78 (sub 0) OBJ File: 'model3.blend'
# www.blender.org
mtllib model3.mtl
o HITBOX_OBJECT_Cube.001
v -1.000000 -1.000000 0.987468
v -1.000000 1.000000 0.987468
v -1.000000 -1.000000 -1.012532
v -1.000000 1.000000 -1.012532
v 1.000000 -1.000000 0.987468
v 1.000000 1.000000 0.987468
v 1.000000 -1.000000 -1.012532
v 1.000000 1.000000 -1.012532
vn -1.0000 0.0000 0.0000
vn 0.0000 0.0000 -1.0000
vn 1.0000 0.0000 0.0000
vn 0.0000 0.0000 1.0000
vn 0.0000 -1.0000 0.0000
vn 0.0000 1.0000 0.0000
usemtl None
s off
f 2//1 3//1 1//1
f 4//2 7//2 3//2
f 8//3 5//3 7//3
f 6//4 1//4 5//4
f 7//5 1//5 3//5
f 4//6 6//6 8//6
f 2//1 4//1 3//1
f 4//2 8//2 7//2
f 8//3 6//3 5//3
f 6//4 2//4 1//4
f 7//5 5//5 1//5
f 4//6 2//6 6//6
o OBJECT_Cube
v 0.163316 -1.000000 -1.000000
v 1.000000 -1.000000 1.000000
v -0.569354 -1.000000 0.470920
v -1.000000 -1.000000 -1.000000
v 1.000000 1.000000 -0.999999
v 0.999999 1.014765 0.424165
v -1.000000 0.187924 0.645639
v -1.000000 0.143629 -1.000000
vn 0.0000 -1.0000 0.0000
vn -0.3936 0.9192 -0.0095
vn 0.9170 -0.1096 -0.3836
vn -0.3095 -0.2473 0.9182
vn -0.9597 -0.0000 0.2810
vn 0.0000 0.0000 -1.0000
vn -0.3843 0.9229 -0.0248
vn 0.9225 -0.3859 0.0040
vn -0.0071 0.2748 0.9615
vn -0.9397 -0.3420 0.0092
usemtl Material
s off
f 9//7 11//7 12//7
f 16//8 14//8 13//8
f 9//9 14//9 10//9
f 10//10 15//10 11//10
f 11//11 16//11 12//11
f 9//12 16//12 13//12
f 9//7 10//7 11//7
f 16//13 15//13 14//13
f 9//14 13//14 14//14
f 10//15 14//15 15//15
f 11//16 15//16 16//16
f 9//12 12//12 16//12
o HITBOX_MODEL_Cube.002
v -1.000499 -1.000499 0.987967
v -1.000499 1.000499 0.987967
v -1.000499 -1.000499 -1.013032
v -1.000499 1.000499 -1.013032
v 1.000499 -1.000499 0.987967
v 1.000499 1.000499 0.987967
v 1.000499 -1.000499 -1.013032
v 1.000499 1.000499 -1.013032
vn -1.0000 0.0000 0.0000
vn 0.0000 0.0000 -1.0000
vn 1.0000 0.0000 0.0000
vn 0.0000 0.0000 1.0000
vn 0.0000 -1.0000 0.0000
vn 0.0000 1.0000 0.0000
usemtl None
s off
f 18//17 19//17 17//17
f 20//18 23//18 19//18
f 24//19 21//19 23//19
f 22//20 17//20 21//20
f 23//21 17//21 19//21
f 20//22 22//22 24//22
f 18//17 20//17 19//17
f 20//18 24//18 23//18
f 24//19 22//19 21//19
f 22//20 18//20 17//20
f 23//21 21//21 17//21
f 20//22 18//22 22//22
