# Blender v2.79 (sub 0) OBJ File: 'PLAYER_MODEL_1.blend'
# www.blender.org
mtllib PLAYER_MODEL_1.mtl
o HITBOX_MODEL_Cube.002
v -0.984485 -1.001588 0.472807
v 0.475477 2.695803 -0.997399
v -0.473908 -1.001588 -0.997399
v -0.984486 2.695803 -0.507346
v 0.510857 -1.001588 0.988293
v -0.489586 2.695803 0.988293
v 0.996298 -1.001588 -0.516278
v 0.996298 2.695803 0.476386
v 0.996298 -1.001588 0.476386
v -0.489586 -1.001588 0.988293
v -0.984485 -1.001588 -0.507346
v 0.475477 -1.001588 -0.997399
v 0.996298 2.695803 -0.516278
v 0.510856 2.695803 0.988293
v -0.473908 2.695803 -0.997399
v -0.984486 2.695803 0.472807
v 0.475477 -1.001588 -0.997399
v 0.475477 2.695803 -0.997399
vn 0.0000 1.0000 -0.0000
vn 0.6786 0.0000 -0.7345
vn 0.0000 0.0000 1.0000
vn 0.7256 0.0000 0.6881
vn 0.0000 -1.0000 0.0000
vn -0.7214 -0.0000 0.6926
vn -0.6925 -0.0000 -0.7215
vn 0.0000 0.0000 -1.0000
vn 1.0000 0.0000 0.0000
vn -1.0000 -0.0000 0.0000
usemtl None
s off
f 16//1 8//1 2//1
f 12//2 13//2 7//2
f 12//3 18//3 2//3
f 9//4 14//4 5//4
f 12//5 1//5 3//5
f 1//6 6//6 16//6
f 11//7 15//7 3//7
f 5//3 6//3 10//3
f 3//8 18//8 17//8
f 7//9 8//9 9//9
f 1//10 4//10 11//10
f 15//1 4//1 16//1
f 16//1 6//1 8//1
f 14//1 8//1 6//1
f 2//3 18//3 15//3
f 8//1 13//1 2//1
f 15//1 16//1 2//1
f 12//2 2//2 13//2
f 12//3 17//3 18//3
f 9//4 8//4 14//4
f 3//3 17//3 12//3
f 12//5 7//5 9//5
f 9//5 5//5 10//5
f 10//5 1//5 9//5
f 11//5 3//5 1//5
f 12//5 9//5 1//5
f 1//6 10//6 6//6
f 11//7 4//7 15//7
f 5//3 14//3 6//3
f 3//8 15//8 18//8
f 7//9 13//9 8//9
f 1//10 16//10 4//10
o HEAD_Cube.001
v 0.335481 2.675832 -0.335481
v 0.335481 2.004870 -0.335481
v 0.335481 2.675832 0.335481
v 0.335481 2.004870 0.335481
v -0.335481 2.675832 -0.335481
v -0.335481 2.004870 -0.335481
v -0.335481 2.675832 0.335481
v -0.335481 2.004870 0.335481
vn 1.0000 0.0000 0.0000
vn 0.0000 0.0000 1.0000
vn -1.0000 0.0000 0.0000
vn 0.0000 0.0000 -1.0000
vn 0.0000 1.0000 0.0000
vn 0.0000 -1.0000 0.0000
usemtl None
s off
f 21//11 20//11 19//11
f 25//12 22//12 21//12
f 23//13 26//13 25//13
f 19//14 24//14 23//14
f 19//15 25//15 21//15
f 24//16 22//16 26//16
f 21//11 22//11 20//11
f 25//12 26//12 22//12
f 23//13 24//13 26//13
f 19//14 20//14 24//14
f 19//15 23//15 25//15
f 24//16 20//16 22//16
o BODY_Cube
v 0.742819 -1.000000 -0.557050
v 0.742819 -1.000000 0.521614
v -0.706079 -1.000000 0.521613
v -0.706079 -1.000000 -0.557050
v 0.742820 2.009927 -0.557049
v 0.742819 2.009927 0.521614
v -0.706080 2.009927 0.521613
v -0.706079 2.009927 -0.557050
vn 0.0000 -1.0000 0.0000
vn 0.0000 1.0000 0.0000
vn 1.0000 -0.0000 0.0000
vn -0.0000 -0.0000 1.0000
vn -1.0000 -0.0000 -0.0000
vn 0.0000 0.0000 -1.0000
usemtl Material
s off
f 28//17 30//17 27//17
f 34//18 32//18 31//18
f 31//19 28//19 27//19
f 32//20 29//20 28//20
f 33//21 30//21 29//21
f 27//22 34//22 31//22
f 28//17 29//17 30//17
f 34//18 33//18 32//18
f 31//19 32//19 28//19
f 32//20 33//20 29//20
f 33//21 34//21 30//21
f 27//22 30//22 34//22
o HITBOX_BODY_Cube.003
v 0.742819 -1.000000 -0.557050
v 0.742819 -1.000000 0.521614
v -0.706079 -1.000000 0.521613
v -0.706079 -1.000000 -0.557050
v 0.742820 2.009927 -0.557049
v 0.742819 2.009927 0.521614
v -0.706080 2.009927 0.521613
v -0.706079 2.009927 -0.557050
vn 0.0000 -1.0000 0.0000
vn 0.0000 1.0000 0.0000
vn 1.0000 -0.0000 0.0000
vn -0.0000 -0.0000 1.0000
vn -1.0000 -0.0000 -0.0000
vn 0.0000 0.0000 -1.0000
usemtl Material.001
s off
f 36//23 38//23 35//23
f 42//24 40//24 39//24
f 39//25 36//25 35//25
f 40//26 37//26 36//26
f 41//27 38//27 37//27
f 35//28 42//28 39//28
f 36//23 37//23 38//23
f 42//24 41//24 40//24
f 39//25 40//25 36//25
f 40//26 41//26 37//26
f 41//27 42//27 38//27
f 35//28 38//28 42//28
o HITBOX_HEAD_Cube.004
v 0.335481 2.675832 -0.335481
v 0.335481 2.004870 -0.335481
v 0.335481 2.675832 0.335481
v 0.335481 2.004870 0.335481
v -0.335481 2.675832 -0.335481
v -0.335481 2.004870 -0.335481
v -0.335481 2.675832 0.335481
v -0.335481 2.004870 0.335481
vn 1.0000 0.0000 0.0000
vn 0.0000 0.0000 1.0000
vn -1.0000 0.0000 0.0000
vn 0.0000 0.0000 -1.0000
vn 0.0000 1.0000 0.0000
vn 0.0000 -1.0000 0.0000
usemtl None
s off
f 45//29 44//29 43//29
f 49//30 46//30 45//30
f 47//31 50//31 49//31
f 43//32 48//32 47//32
f 43//33 49//33 45//33
f 48//34 46//34 50//34
f 45//29 46//29 44//29
f 49//30 50//30 46//30
f 47//31 48//31 50//31
f 43//32 44//32 48//32
f 43//33 47//33 49//33
f 48//34 44//34 46//34
