# Blender v2.78 (sub 0) OBJ File: 'PLAYER_MODEL_1.blend'
# www.blender.org
mtllib WEAPON_1_1.mtl
o HITBOX_MODEL_GUN_Cube.009
v 0.151660 1.990658 3.066553
v 0.151660 1.412375 3.066553
v 0.151660 1.990658 0.385801
v 0.151660 1.412375 0.385801
v -0.162590 1.990658 3.066553
v -0.162590 1.412375 3.066553
v -0.162590 1.990658 0.385801
v -0.162590 1.412375 0.385801
vn 1.0000 0.0000 0.0000
vn 0.0000 0.0000 -1.0000
vn -1.0000 0.0000 0.0000
vn 0.0000 0.0000 1.0000
vn 0.0000 1.0000 0.0000
vn 0.0000 -1.0000 0.0000
usemtl None
s off
f 2//1 3//1 1//1
f 4//2 7//2 3//2
f 8//3 5//3 7//3
f 6//4 1//4 5//4
f 7//5 1//5 3//5
f 4//6 6//6 8//6
f 2//1 4//1 3//1
f 4//2 8//2 7//2
f 8//3 6//3 5//3
f 6//4 2//4 1//4
f 7//5 5//5 1//5
f 4//6 2//6 6//6
o GUN_STOCK_Cube.008
v -0.141349 1.653566 1.140831
v -0.141349 1.816242 1.140831
v -0.141349 1.518221 0.405891
v -0.141349 1.816242 0.405891
v 0.139974 1.653566 1.140831
v 0.139974 1.816242 1.140831
v 0.139974 1.518221 0.405891
v 0.139974 1.816242 0.405891
vn -1.0000 0.0000 0.0000
vn 0.0000 0.0000 -1.0000
vn 1.0000 0.0000 0.0000
vn 0.0000 0.0000 1.0000
vn 0.0000 -0.9835 0.1811
vn 0.0000 1.0000 0.0000
usemtl None
s off
f 9//7 12//7 11//7
f 12//8 15//8 11//8
f 16//9 13//9 15//9
f 14//10 9//10 13//10
f 15//11 9//11 11//11
f 12//12 14//12 16//12
f 9//7 10//7 12//7
f 12//8 16//8 15//8
f 16//9 14//9 13//9
f 14//10 10//10 9//10
f 15//11 13//11 9//11
f 12//12 10//12 14//12
o GUN_MAGAZINE_Cube.007
v 0.082669 1.429720 2.352497
v 0.082669 1.745963 2.352497
v 0.082669 1.429720 1.965848
v 0.082669 1.745963 1.965848
v -0.084042 1.429720 2.352497
v -0.084042 1.745963 2.352497
v -0.084042 1.429720 1.965848
v -0.084042 1.745963 1.965848
vn -1.0000 0.0000 0.0000
vn 0.0000 0.0000 1.0000
vn 1.0000 0.0000 0.0000
vn 0.0000 0.0000 -1.0000
vn 0.0000 1.0000 0.0000
vn 0.0000 -1.0000 0.0000
usemtl None
s off
f 18//13 19//13 17//13
f 20//14 23//14 19//14
f 24//15 21//15 23//15
f 22//16 17//16 21//16
f 23//17 17//17 19//17
f 20//18 22//18 24//18
f 18//13 20//13 19//13
f 20//14 24//14 23//14
f 24//15 22//15 21//15
f 22//16 18//16 17//16
f 23//17 21//17 17//17
f 20//18 18//18 22//18
o GUN_SIGHT_Cube.006
v 0.041833 1.805405 1.931083
v 0.041833 1.986963 1.931083
v 0.041833 1.805405 1.319930
v 0.041833 1.986963 1.319930
v -0.060451 1.805405 1.931083
v -0.060451 1.986963 1.931083
v -0.060451 1.805405 1.319930
v -0.060451 1.986963 1.319930
vn -1.0000 0.0000 0.0000
vn 0.0000 0.0000 1.0000
vn 1.0000 0.0000 0.0000
vn 0.0000 0.0000 -1.0000
vn 0.0000 1.0000 0.0000
vn 0.0000 -1.0000 0.0000
usemtl None
s off
f 26//19 27//19 25//19
f 28//20 31//20 27//20
f 32//21 29//21 31//21
f 30//22 25//22 29//22
f 31//23 25//23 27//23
f 28//24 30//24 32//24
f 26//19 28//19 27//19
f 28//20 32//20 31//20
f 32//21 30//21 29//21
f 30//22 26//22 25//22
f 31//23 29//23 25//23
f 28//24 26//24 30//24
o GUN_BODY_Cube.005
v 0.130907 1.643804 3.061726
v 0.130907 1.882466 3.061726
v 0.130907 1.643804 1.141146
v 0.130907 1.882466 1.141146
v -0.128769 1.643804 3.061726
v -0.128769 1.882466 3.061726
v -0.128769 1.643804 1.141146
v -0.128769 1.882466 1.141146
vn -1.0000 0.0000 0.0000
vn 0.0000 0.0000 1.0000
vn 1.0000 0.0000 0.0000
vn 0.0000 0.0000 -1.0000
vn 0.0000 1.0000 0.0000
vn 0.0000 -1.0000 0.0000
usemtl None
s off
f 34//25 35//25 33//25
f 36//26 39//26 35//26
f 40//27 37//27 39//27
f 38//28 33//28 37//28
f 39//29 33//29 35//29
f 36//30 38//30 40//30
f 34//25 36//25 35//25
f 36//26 40//26 39//26
f 40//27 38//27 37//27
f 38//28 34//28 33//28
f 39//29 37//29 33//29
f 36//30 34//30 38//30
